<svg id="Layer_1" data-name="Layer 1" xmlns="http://www.w3.org/2000/svg" xmlns:xlink="http://www.w3.org/1999/xlink" viewBox="0 0 1417.32 1417.32"><defs><style>.cls-1,.cls-10,.cls-12,.cls-3,.cls-4,.cls-6,.cls-7,.cls-8{fill:none;}.cls-1{stroke:#7d4e24;}.cls-1,.cls-2,.cls-3,.cls-4,.cls-5,.cls-6,.cls-8{stroke-miterlimit:10;}.cls-1,.cls-2,.cls-4,.cls-5,.cls-6{stroke-width:14px;}.cls-2{fill:#fff;stroke:#432918;}.cls-10,.cls-12,.cls-3,.cls-7,.cls-8{stroke:#1d1d1b;stroke-linecap:round;stroke-width:4px;}.cls-3{opacity:0.7;}.cls-4{stroke:url(#linear-gradient);}.cls-5{fill:url(#linear-gradient-2);stroke:url(#linear-gradient-3);}.cls-6{stroke:url(#linear-gradient-4);}.cls-10,.cls-12,.cls-7{stroke-linejoin:round;}.cls-7,.cls-8{opacity:0.1;}.cls-12,.cls-9{opacity:0.4;}.cls-11{opacity:0.6;}.cls-13{opacity:0.61;}.cls-14{opacity:0.3;}.cls-15,.cls-16{fill:#1d1d1b;}.cls-16{opacity:0.9;font-size:218.2px;font-family:InterUI-Italic, Inter UI;font-style:italic;}</style><linearGradient id="linear-gradient" x1="1136.73" y1="734.19" x2="1136.73" y2="460.31" gradientUnits="userSpaceOnUse"><stop offset="0" stop-color="#7d4e24"/><stop offset="1" stop-color="#432918"/></linearGradient><linearGradient id="linear-gradient-2" x1="641.85" y1="873.32" x2="641.85" y2="873.32" gradientUnits="userSpaceOnUse"><stop offset="0" stop-color="#aa6415"/><stop offset="1" stop-color="#694510"/></linearGradient><linearGradient id="linear-gradient-3" x1="641.85" y1="1012.97" x2="641.85" y2="733.67" xlink:href="#linear-gradient"/><linearGradient id="linear-gradient-4" x1="280.57" y1="801.14" x2="280.57" y2="521.85" xlink:href="#linear-gradient"/></defs><title>Artboard 1</title><path class="cls-1" d="M1127.52,755.14,648.89,1010.91a17.45,17.45,0,0,1-17-.33L285.52,807.87a10,10,0,0,1,.42-17.48L775.25,534.75a17.45,17.45,0,0,1,16.66.27l336,189.54A17.45,17.45,0,0,1,1127.52,755.14Z"/><path class="cls-2" d="M1127.52,476.37,648.89,732.13a17.45,17.45,0,0,1-17-.33L285.52,529.09a10,10,0,0,1,.42-17.48L775.25,256a17.45,17.45,0,0,1,16.66.27l336,189.54A17.45,17.45,0,0,1,1127.52,476.37Z"/><line class="cls-3" x1="853.12" y1="287.73" x2="879.54" y2="303.81"/><line class="cls-4" x1="1136.73" y1="460.31" x2="1136.73" y2="734.19"/><line class="cls-5" x1="641.85" y1="733.67" x2="641.85" y2="1012.97"/><line class="cls-6" x1="280.57" y1="521.85" x2="280.57" y2="801.14"/><polyline class="cls-7" points="710.41 604.94 498.38 485.72 498.38 485.72 713.49 365.03 932.83 488.13 712.14 605.89"/><polyline class="cls-7" points="710.48 364.07 498.59 243.05 498.59 243.05 713.6 123.99 933.03 247.15 712.21 365.03"/><line class="cls-8" x1="932.83" y1="247.27" x2="932.83" y2="488.13"/><line class="cls-8" x1="498.5" y1="243.71" x2="498.26" y2="486.58"/><line class="cls-8" x1="713.49" y1="124.17" x2="712.14" y2="605.89"/><g class="cls-9"><line class="cls-10" x1="713.39" y1="124.11" x2="695.56" y2="133.98"/><line class="cls-10" x1="713.46" y1="144.42" x2="713.46" y2="124.11"/><line class="cls-10" x1="731.49" y1="134.27" x2="713.39" y2="124.11"/></g><g class="cls-11"><line class="cls-10" x1="712.98" y1="604.84" x2="730.81" y2="594.97"/><line class="cls-10" x1="712.91" y1="584.53" x2="712.91" y2="604.84"/><line class="cls-10" x1="694.89" y1="594.68" x2="712.98" y2="604.84"/></g><g class="cls-11"><polyline class="cls-10" points="498.35 465.08 498.38 485.72 516.07 475.79 498.38 485.72 516.17 495.72"/></g><line class="cls-12" x1="730.59" y1="355.23" x2="695.13" y2="375.33"/><line class="cls-12" x1="694.99" y1="355.23" x2="731.27" y2="374.83"/><line class="cls-12" x1="712.81" y1="348.12" x2="712.76" y2="380.83"/><g class="cls-9"><line class="cls-10" x1="498.38" y1="242.76" x2="516.21" y2="232.89"/><line class="cls-10" x1="516.27" y1="252.98" x2="498.38" y2="242.76"/><line class="cls-10" x1="498.38" y1="263.09" x2="498.38" y2="242.76"/></g><g class="cls-13"><line class="cls-10" x1="932.5" y1="488.31" x2="914.54" y2="497.94"/><line class="cls-10" x1="914.75" y1="477.85" x2="932.5" y2="488.31"/><line class="cls-10" x1="932.78" y1="467.99" x2="932.5" y2="488.31"/></g><polyline class="cls-12" points="932.83 267.71 932.83 247.15 915.11 237.09 933.03 247.15 914.22 257.19"/><g class="cls-14"><path class="cls-15" d="M449.18,1290.68V1272.4h-1.86c-4,6.51-12.09,20.76-35,20.76-29.75,0-50.51-23.86-50.51-61.67,0-37.5,20.76-61.36,50.82-61.36,23.24,0,30.68,14.26,34.71,20.45h1.24V1132h18.28v158.67Zm-34.4-13.95c22,0,34.09-18.59,34.09-45.56,0-26.65-11.78-44.63-34.09-44.63-23.24,0-34.71,19.53-34.71,44.63C380.07,1256.59,391.85,1276.74,414.78,1276.74Z"/><path class="cls-15" d="M494.76,1232.11c0-36.57,21.38-62,53.61-62,24.79,0,51.13,15.19,51.13,59.5v7.75H513.27c1.86,25.72,15.42,39.36,37,39.36,14.57,0,25.1-6.2,29.75-18.59l17.66,5c-5.58,18-23.24,30.06-47.41,30.06C515.83,1293.16,494.76,1268.68,494.76,1232.11Zm18.9-10.54h67.25c0-20.14-12.71-35-32.54-35C530.09,1186.55,516.6,1199.26,513.66,1221.57Z"/><path class="cls-15" d="M646,1290.68H627.72V1132H646Z"/><path class="cls-15" d="M675.45,1142.24a13,13,0,0,1,26,0c0,6.82-5,12.4-13,12.4S675.45,1149.06,675.45,1142.24Zm22.31,148.44H679.48v-119h18.28Z"/><path class="cls-15" d="M779.85,1290.68H759.24l-36.53-119h21l28,97.39,1.89-2.56L826,1172.65l18.45.74Z"/></g><text class="cls-16" transform="translate(764.64 1290.68)">AR</text></svg>