<?xml version="1.0" encoding="utf-8"?>
<!-- Generator: Adobe Illustrator 21.0.0, SVG Export Plug-In . SVG Version: 6.00 Build 0)  -->
<svg version="1.1" id="Layer_1" xmlns="http://www.w3.org/2000/svg" xmlns:xlink="http://www.w3.org/1999/xlink" x="0px" y="0px"
	 viewBox="0 0 64 64" style="enable-background:new 0 0 64 64;" xml:space="preserve">
<style type="text/css">
	.st0{fill:none;stroke:#202020;stroke-width:2;stroke-linecap:round;stroke-linejoin:round;stroke-miterlimit:10;}
</style>
<title>Upload Package</title>
<desc>A line styled icon from Orion Icon Library.</desc>
<path class="st0" d="M30.5,50H2V16.4L11.6,2h28.8L50,16.4v14.1 M2.3,16h47.4 M26,2v14"/>
<circle class="st0" cx="46" cy="46" r="16"/>
<path class="st0" d="M55,40.3h-4.2l-2.2-2.7h-5.4l-2.2,2.7H37c-0.6,0-1,0.5-1,1v10.1c0,0.6,0.5,1,1,1H55c0.6,0,1-0.5,1-1V41.3
	C56.1,40.8,55.6,40.3,55,40.3z"/>
<circle class="st0" cx="46" cy="46" r="3.4"/>
</svg>
