<?xml version="1.0" encoding="utf-8"?>
<!-- Generator: Adobe Illustrator 21.0.0, SVG Export Plug-In . SVG Version: 6.00 Build 0)  -->
<svg version="1.1" id="Layer_1" xmlns="http://www.w3.org/2000/svg" xmlns:xlink="http://www.w3.org/1999/xlink" x="0px" y="0px"
	 viewBox="0 0 64 64" style="enable-background:new 0 0 64 64;" xml:space="preserve">
<style type="text/css">
	.st0{fill:#FFC33E;}
	.st1{fill:#FFCC99;}
	.st2{opacity:0.25;fill:#FFFFFF;enable-background:new    ;}
	.st3{opacity:0.15;fill:#000064;enable-background:new    ;}
	.st4{fill:none;stroke:#2E4369;stroke-width:2;stroke-linecap:round;stroke-linejoin:round;}
	.st5{fill:none;stroke:#2E4369;stroke-width:2;stroke-linecap:round;stroke-linejoin:round;stroke-miterlimit:10;}
</style>
<title>Upload Package</title>
<desc>A color styled icon from Orion Icon Library.</desc>
<circle class="st0" cx="46" cy="46" r="16"/>
<path class="st1" d="M46,30c1.3,0,2.7,0.2,4,0.5V16.4L40.4,2H11.6L2,16.4V50h28.5c-2.3-8.5,2.8-17.2,11.3-19.5
	C43.1,30.2,44.6,30,46,30z"/>
<path class="st2" d="M40.4,2H11.6L2.3,16h47.4L40.4,2z"/>
<path class="st3" d="M30.5,50c-2.2-8.4,2.7-16.9,11-19.3c-8.5-2.5-17.4,2.4-19.8,10.9c-0.8,2.7-0.9,5.7-0.2,8.4H30.5z"/>
<path class="st4" d="M30.5,50H2V16.4L11.6,2h28.8L50,16.4v14.1 M2.3,16h47.4 M26,2v14"/>
<circle class="st4" cx="46" cy="46" r="16"/>
<g>
	<path class="st5" d="M55,41.3h-4.2l-2.2-2.7h-5.4l-2.2,2.7H37c-0.6,0-1,0.5-1,1v10.1c0,0.6,0.5,1,1,1H55c0.6,0,1-0.5,1-1V42.3
		C56.1,41.8,55.6,41.3,55,41.3z"/>
	<circle class="st5" cx="46" cy="47" r="3.4"/>
</g>
</svg>
